<svg width="114" height="114" viewBox="0 0 114 114" fill="none" xmlns="http://www.w3.org/2000/svg">
<g id="bxs-user home.svg">
<path id="Vector" d="M68.2416 17.0037L68.2348 16.9973C67.8467 16.6268 67.4537 16.2614 67.0559 15.9014C61.6377 11.5581 52.95 12.0712 47.7095 16.5275C47.2336 16.9353 46.7522 17.3375 46.265 17.7332L46.2603 17.737C45.1291 18.6484 44.0332 19.5674 42.9743 20.531C42.322 21.1254 41.6566 21.7156 40.9612 22.2911L40.9548 22.2964L40.9483 22.3016C39.8041 23.2272 38.7004 24.1369 37.6429 25.1007C36.9904 25.6954 36.3247 26.2858 35.629 26.8615L35.6225 26.8669L35.616 26.8721C34.4719 27.7977 33.3682 28.7073 32.3107 29.6711C31.6582 30.2659 30.9924 30.8563 30.2967 31.432L30.2903 31.4373L30.2838 31.4426C29.1397 32.3682 28.036 33.2778 26.9785 34.2416C26.3259 34.8363 25.6602 35.4268 24.9645 36.0025L24.9581 36.0078L24.9516 36.0131C23.8077 36.9384 22.7043 37.8479 21.647 38.8114C20.9989 39.4042 20.3332 39.9935 19.6213 40.5624L19.6127 40.5693L19.6127 40.5692C18.6389 41.3358 17.7281 42.0854 16.8902 42.9059C13.8194 46.0448 12.8729 49.5227 12.9006 54.0919L68.2416 17.0037ZM68.2416 17.0037C68.9345 17.6571 69.6463 18.2456 70.3501 18.8115C71.4498 19.7012 72.5075 20.6368 73.5746 21.6093L73.5815 21.6156M68.2416 17.0037L73.5815 21.6156M73.5815 21.6156L73.5885 21.6218M73.5815 21.6156L73.5885 21.6218M73.5885 21.6218C74.2796 22.2361 74.9829 22.8162 75.6808 23.3808C76.7811 24.2709 77.8393 25.2069 78.9068 26.1798L78.9137 26.1861M73.5885 21.6218L78.9137 26.1861M78.9137 26.1861L78.9207 26.1923M78.9137 26.1861L78.9207 26.1923M78.9207 26.1923C79.6118 26.8066 80.3151 27.3866 81.0131 27.9513C82.1133 28.8413 83.1715 29.7773 84.2391 30.7503L84.2459 30.7566M78.9207 26.1923L84.2459 30.7566M84.2459 30.7566L84.2529 30.7628M84.2459 30.7566L84.2529 30.7628M84.2529 30.7628C84.9441 31.3771 85.6474 31.9571 86.3453 32.5217C87.4455 33.4118 88.5038 34.3478 89.5713 35.3208L89.5782 35.327M84.2529 30.7628L89.5782 35.327M89.5782 35.327L89.5852 35.3332M89.5782 35.327L89.5852 35.3332M89.5852 35.3332C90.2763 35.9476 90.9796 36.5276 91.6775 37.0922C92.778 37.9825 93.8368 38.9177 94.9007 39.8906L94.9094 39.8985M89.5852 35.3332L94.9094 39.8985M94.9094 39.8985L94.9182 39.9063M94.9094 39.8985L94.9182 39.9063M94.9182 39.9063C95.6165 40.525 96.3315 41.0975 97.0292 41.6498L94.9182 39.9063ZM104.023 55.8566C104.026 56.941 104.025 58.0253 104.023 59.1097M104.023 55.8566C104.021 55.4537 104.02 55.0508 104.019 54.6479C104.025 53.2703 104.023 51.9011 103.92 50.5262M104.023 55.8566L102.523 55.8613C102.523 55.8618 102.523 55.8622 102.523 55.8627L104.023 55.8566ZM104.023 59.1097L103.92 50.5262M104.023 59.1097C104.021 60.091 104.022 61.0722 104.023 62.0535M104.023 59.1097L104.023 62.0535M103.92 50.5262L102.424 50.6379C102.426 50.662 102.428 50.686 102.43 50.71C102.434 50.7335 102.438 50.757 102.442 50.7805L103.92 50.5262ZM12.9041 55.2762L12.9041 55.2786C12.9018 56.3487 12.9024 57.4183 12.9066 58.4876L12.9041 55.2762ZM12.9041 55.2762C12.9043 54.8819 12.9032 54.4873 12.9006 54.0925L12.9041 55.2762ZM104.023 62.0535L104.024 62.5321L104.023 62.0535ZM12.9212 67.6351C12.9157 65.7267 12.9132 63.8182 12.9129 61.9094V61.9093C12.9126 60.7697 12.9111 59.629 12.9066 58.4877L12.9212 67.6351ZM46.1933 48.2409L46.1488 48.2892L46.1086 48.3413C43.6803 51.494 42.248 55.4382 42.7613 59.597L42.767 59.6429L42.7754 59.6884C43.5543 63.8625 45.4082 67.3698 48.9059 70.0639L48.9482 70.0965L48.9928 70.126C52.4016 72.3847 56.3018 73.4197 60.4524 72.6453L60.48 72.6402L60.5074 72.634C64.6884 71.6908 68.076 69.4083 70.4761 65.817L70.5031 65.7766L70.5274 65.7346C72.7438 61.9029 73.1426 57.8657 72.0681 53.6815L72.0638 53.6645L72.059 53.6476C71.5839 51.9625 70.8989 50.5331 69.8215 49.1125C69.8213 49.1123 69.8212 49.1121 69.821 49.1119L69.3315 48.4658L69.3122 48.4403L69.2917 48.4156C66.4855 45.0234 62.8239 43.3573 58.6272 42.8479L58.5692 42.8409L58.5108 42.8384C53.6374 42.6291 49.341 44.8205 46.1933 48.2409ZM44.4584 80.3234L44.4403 80.3377L44.4227 80.3525C40.3586 83.7674 38.4119 88.2473 37.4461 93.1479L37.4178 93.2916V93.438V93.4478V93.4576V93.4674V93.4773V93.4871V93.4969V93.5067V93.5165V93.5264V93.5362V93.546V93.5558V93.5656V93.5755V93.5853V93.5951V93.6049V93.6147V93.6245V93.6344V93.6442V93.654V93.6638V93.6737V93.6835V93.6933V93.7031V93.7129V93.7228V93.7326V93.7424V93.7522V93.762V93.7719V93.7817V93.7915V93.8013V93.8111V93.821V93.8308V93.8406V93.8504V93.8602V93.8701V93.8799V93.8897V93.8995V93.9094V93.9192V93.929V93.9388V93.9486V93.9585V93.9683V93.9781V93.9879V93.9978V94.0076V94.0174V94.0272V94.037V94.0469V94.0567V94.0665V94.0763V94.0862V94.096V94.1058V94.1156V94.1255V94.1353V94.1451V94.1549V94.1648V94.1746V94.1844V94.1942V94.2041V94.2139V94.2237V94.2336V94.2434V94.2532V94.263V94.2729V94.2827V94.2925V94.3023V94.3122V94.322V94.3318V94.3417V94.3515V94.3613V94.3711V94.381V94.3908V94.4006V94.4105V94.4203V94.4301V94.44V94.4498V94.4596V94.4695V94.4793V94.4891V94.499V94.5088V94.5186V94.5285V94.5383V94.5481V94.558V94.5678V94.5776V94.5875V94.5973V94.6071V94.617V94.6268V94.6366V94.6465V94.6563V94.6661V94.676V94.6858V94.6957V94.7055V94.7153V94.7252V94.735V94.7449V94.7547V94.7645V94.7744V94.7842V94.7941V94.8039V94.8137V94.8236V94.8334V94.8433V94.8531V94.8629V94.8728V94.8826V94.8925V94.9023V94.9122V94.922V94.9319V94.9417V94.9515V94.9614V94.9712V94.9811V94.9909V95.0008V95.0106V95.0205V95.0303V95.0402V95.05V95.0599V95.0697V95.0796V95.0894V95.0993V95.1091V95.119V95.1288V95.1387V95.1485V95.1584V95.1683V95.1781V95.188V95.1978V95.2077V95.2175V95.2274V95.2372V95.2471V95.257V95.2668V95.2767V95.2865V95.2964V95.3063V95.3161V95.326V95.3358V95.3457V95.3556V95.3654V95.3753V95.3852V95.395V95.4049V95.4147V95.4246V95.4345V95.4444V95.4542V95.4641V95.474V95.4838V95.4937V95.5036V95.5134V95.5233V95.5332V95.543V95.5529V95.5628V95.5727V95.5825V95.5924V95.6023V95.6122V95.622V95.6319V95.6418V95.6516V95.6615V95.6714V95.6813V95.6912V95.701V95.7109V95.7208V95.7307V95.7406V95.7505V95.7603V95.7702V95.7801V95.79V95.7999V95.8097V95.8196V95.8295V95.8394V95.8493V95.8592V95.8691V95.879V95.8888V95.8987V95.9086V95.9185V95.9284V95.9383V95.9482V95.9581V95.968V95.9779V95.9878V95.9977V96.0076V96.0175V96.0274V96.0373V96.0472V96.0571V96.067V96.0769V96.0868V96.0967V96.1066V96.1165V96.1264V96.1363V96.1462V96.1561V96.166V96.1759V96.1858V96.1957V96.2056V96.2155V96.2254V96.2354V96.2453V96.2552V96.2651V96.275V96.2849V96.2948V96.3047V96.3147V96.3246V96.3345V96.3444V96.3543V96.3643V96.3742V96.3841V96.394V96.4039V96.4139V96.4238V96.4337V96.4436V96.4536V96.4635V96.4734V96.4833V96.4933V96.5032V96.5131V96.523V96.533V96.5429V96.5528V96.5628V96.5727V96.5826V96.5926V96.6025V96.6125V96.6224V96.6323V96.6423V96.6522V96.6621V96.6721V96.682V96.692V96.7019V96.7119V96.7218V96.7318V96.7417V96.7516V96.7616V96.7715V96.7815V96.7914V96.8014V96.8113V96.8213V96.8313V96.8412V96.8512V96.8611V96.8711V96.881V96.891V96.9009V96.9109V96.9209V96.9308V96.9408V96.9508V96.9607V96.9707V96.9806V96.9906V97.0006V97.0105V97.0205V97.0305V97.0405V97.0504V97.0604V97.0704V97.0803V97.0903V97.1003V97.1103V97.1202V97.1302V97.1402V97.1502V97.1602V97.1701V97.1801V97.1901V97.2001V97.2101V97.2201V97.23V97.24V97.25V97.26V97.27V97.28V97.29V97.3V97.31V97.32V97.33V97.34V97.35V97.36V97.3699V97.38V97.39V97.3999V97.41V97.42V97.43V97.44V97.45V97.46V97.47V97.48V97.49V97.5V97.51V97.52V97.5301V97.5401V97.5501V97.5601V97.5701V97.5801V97.5902V97.6002V97.6102V97.6202V97.6302V97.6403V97.6503V97.6603V97.6703V97.6804V97.6904V97.7004V97.7105V97.7205V97.7305V97.7406V97.7506V97.7606V97.7707V97.7807V97.7907V97.8008V97.8108V97.8209V97.8309V97.841V97.851V97.861V97.8711V97.8811V97.8912V97.9012V97.9113V97.9213V97.9314V97.9414V97.9515V97.9616V97.9716V97.9817V97.9917V98.0018V98.0118V98.0219V98.032V98.042V98.0521V98.0622V98.0722V98.0823V98.0924V98.1024V98.1125V98.1226V98.1327V98.1427V98.1528V98.1629V98.173V98.1831V98.1931V98.2032V98.2133V98.2234V98.2335V98.2435V98.2536V98.2637V98.2738V98.2839V98.294V98.3041V98.3142V98.3243V98.3344V98.3445V98.3546V98.3647V98.3748V98.3849V98.395V98.4051V98.4152V98.4253V98.4354V98.4455V98.4556V98.4657V98.4758V98.4859V98.4961V98.5062V98.5163V100.016H38.9178H38.9904H39.0631H39.1358H39.2084H39.2811H39.3537H39.4264H39.4991H39.5717H39.6444H39.7171H39.7897H39.8624H39.9351H40.0077H40.0804H40.1531H40.2257H40.2984H40.3711H40.4437H40.5164H40.5891H40.6617H40.7344H40.8071H40.8797H40.9524H41.0251H41.0977H41.1704H41.2431H41.3158H41.3884H41.4611H41.5338H41.6065H41.6791H41.7518H41.8245H41.8972H41.9698H42.0425H42.1152H42.1879H42.2606H42.3332H42.4059H42.4786H42.5513H42.624H42.6967H42.7694H42.842H42.9147H42.9874H43.0601H43.1328H43.2055H43.2782H43.3509H43.4236H43.4963H43.569H43.6417H43.7144H43.7871H43.8598H43.9325H44.0052H44.0779H44.1506H44.2233H44.296H44.3687H44.4414H44.5141H44.5869H44.6596H44.7323H44.805H44.8777H44.9504H45.0232H45.0959H45.1686H45.2413H45.3141H45.3868H45.4595H45.5323H45.605H45.6777H45.7505H45.8232H45.8959H45.9687H46.0414H46.1142H46.1869H46.2597H46.3324H46.4052H46.4779H46.5507H46.6234H46.6962H46.769H46.8417H46.9145H46.9873H47.06H47.1328H47.2056H47.2783H47.3511H47.4239H47.4967H47.5694H47.6422H47.715H47.7878H47.8606H47.9334H48.0062H48.079H48.1518H48.2246H48.2974H48.3702H48.443H48.5158H48.5886H48.6614H48.7342H48.8071H48.8799H48.9527H49.0255H49.0983H49.1712H49.244H49.3168H49.3897H49.4625H49.5354H49.6082H49.681H49.7539H49.8267H49.8996H49.9725H50.0453H50.1182H50.191H50.2639H50.3368H50.4097H50.4825H50.5554H50.6283H50.7012H50.7741H50.8469H50.9198H50.9927H51.0656H51.1385H51.2114H51.2843H51.3572H51.4301H51.5031H51.576H51.6489H51.7218H51.7947H51.8677H51.9406H52.0135H52.0865H52.1594H52.2324H52.3053H52.3783H52.4512H52.5242H52.5971H52.6701H52.743H52.816H52.889H52.962H53.0349H53.1079H53.1809H53.2539H53.3269H53.3999H53.4729H53.5459H53.6189H53.6919H53.7649H53.8379H53.9109H53.984H54.057H54.13H54.203H54.2761H54.3491H54.4222H54.4952H54.5683H54.6413H54.7144H54.7874H54.8605H54.9336H55.0066H55.0797H55.1528H55.2259H55.299H55.3721H55.4451H55.5182H55.5913H55.6645H55.7376H55.8107H55.8838H55.9569H56.03H56.1032H56.1763H56.2494H56.3226H56.3957H56.4689H56.542H56.6152H56.6883H56.7615H56.8347H56.9079H56.981H57.0542H57.1274H57.2006H57.2738H57.347H57.4202H57.4934H57.5666H57.6398H57.713H57.7863H57.8595H57.9327H58.006H58.0792H58.1525H58.2257H58.299H58.3722H58.4455H58.5188H58.592H58.6653H58.7386H58.8119H58.8852H58.9585H59.0318H59.1051H59.1784H59.2517H59.325H59.3983H59.4717H59.545H59.6184H59.6917H59.765H59.8384H59.9118H59.9851H60.0585H60.1319H60.2052H60.2786H60.352H60.4254H60.4988H60.5722H60.6456H60.719H60.7924H60.8659H60.9393H61.0127H61.0862H61.1596H61.233H61.3065H61.38H61.4534H61.5269H61.6004H61.6738H61.7473H61.8208H61.8943H61.9678H62.0413H62.1148H62.1883H62.2619H62.3354H62.4089H62.4824H62.556H62.6295H62.7031H62.7766H62.8502H62.9238H62.9974H63.0709H63.1445H63.2181H63.2917H63.3653H63.4389H63.5125H63.5862H63.6598H63.7334H63.8071H63.8807H63.9544H64.028H64.1017H64.1753H64.249H64.3227H64.3964H64.4701H64.5438H64.6175H64.6912H64.7649H64.8386H64.9123H64.986H65.0598H65.1335H65.2073H65.281H65.3548H65.4286H65.5023H65.5761H65.6499H65.7237H65.7975H65.8713H65.9451H66.0189H66.0927H66.1666H66.2404H66.3143H66.3881H66.462H66.5358H66.6097H66.6836H66.7574H66.8313H66.9052H66.9791H67.053H67.1269H67.2008H67.2748H67.3487H67.4226H67.4966H67.5705H67.6445H67.7185H67.7924H67.8664H67.9404H68.0144H68.0884H68.1624H68.2364H68.3104H68.3844H68.4585H68.5325H68.6066H68.6806H68.7547H68.8287H68.9028H68.9769H69.051H69.1251H69.1992H69.2733H69.3474H69.4215H69.4956H69.5698H69.6439H69.718H69.7922H69.8664H69.9405H70.0147H70.0889H70.1631H70.2373H70.3115H70.3857H70.4599H70.5342H70.6084H70.6826H70.7569H70.8311H70.9054H70.9797H71.054H71.1282H71.2025H71.2768H71.3511H71.4255H71.4998H71.5741H71.6484H71.7228H71.7971H71.8715H71.9459H72.0203H72.0946H72.169H72.2434H72.3178H72.3922H72.4667H72.5411H72.6155H72.69H72.7644H72.8389H72.9134H72.9878H73.0623H73.1368H73.2113H73.2858H73.3603H73.4349H73.5094H73.5839H73.6585H73.733H73.8076H73.8822H73.9567H74.0313H74.1059H74.1805H74.2551H74.3298H74.4044H74.479H74.5537H74.6283H74.703H74.7776H74.8523H74.927H75.0017H75.0764H75.1511H75.2258H75.3005H75.3753H75.45H75.5248H75.5995H75.6743H75.7491H75.8239H75.8987H75.9735H76.0483H76.1231H76.1979H76.2728H76.3476H76.4224H76.4973H77.9973V98.5163C77.9973 95.0416 77.7252 91.9585 76.7946 89.0816C75.8559 86.1797 74.2731 83.5653 71.7607 80.9802L71.7362 80.9551L71.7106 80.9311C67.6404 77.1174 62.2919 75.2699 56.8346 75.3712L56.7984 75.3719L56.7622 75.3743C52.4614 75.6626 48.4987 77.0941 45.0939 79.822C45.0923 79.8232 45.0908 79.8245 45.0892 79.8258L44.4584 80.3234Z" fill="#01806B" stroke="#014D40" stroke-width="3"/>
</g>
</svg>
